<mxfile host="app.diagrams.net" modified="2020-09-28T05:41:55.496Z" agent="5.0 (Windows NT 10.0; Win64; x64) AppleWebKit/537.36 (KHTML, like Gecko) Chrome/85.0.4183.121 Safari/537.36" etag="p1I6Wr13YZ_uZ-4r6gEA" version="12.9.11" type="github">
  <diagram id="wc0N1XrM5LsczAEODqGr" name="Page-1">
    <mxGraphModel dx="813" dy="459" grid="1" gridSize="10" guides="1" tooltips="1" connect="1" arrows="1" fold="1" page="1" pageScale="1" pageWidth="827" pageHeight="1169" math="0" shadow="0">
      <root>
        <mxCell id="0" />
        <mxCell id="1" parent="0" />
        <mxCell id="4Js2agZN6jOMp-eoVjv0-7" style="edgeStyle=orthogonalEdgeStyle;rounded=0;orthogonalLoop=1;jettySize=auto;html=1;exitX=1;exitY=0.5;exitDx=0;exitDy=0;entryX=0;entryY=0.5;entryDx=0;entryDy=0;" parent="1" source="4Js2agZN6jOMp-eoVjv0-1" target="4Js2agZN6jOMp-eoVjv0-6" edge="1">
          <mxGeometry relative="1" as="geometry" />
        </mxCell>
        <mxCell id="4Js2agZN6jOMp-eoVjv0-22" value="+4" style="shape=trapezoid;perimeter=trapezoidPerimeter;whiteSpace=wrap;html=1;rounded=0;shadow=0;glass=0;comic=0;fillColor=#fff2cc;strokeColor=#d6b656;rotation=90;horizontal=0;" parent="1" vertex="1">
          <mxGeometry x="342.5" y="257.5" width="75" height="40" as="geometry" />
        </mxCell>
        <mxCell id="4Js2agZN6jOMp-eoVjv0-27" style="edgeStyle=orthogonalEdgeStyle;rounded=0;orthogonalLoop=1;jettySize=auto;html=1;exitX=0.5;exitY=0;exitDx=0;exitDy=0;entryX=0;entryY=0.5;entryDx=0;entryDy=0;" parent="1" source="4Js2agZN6jOMp-eoVjv0-24" target="4Js2agZN6jOMp-eoVjv0-1" edge="1">
          <mxGeometry relative="1" as="geometry" />
        </mxCell>
        <mxCell id="4Js2agZN6jOMp-eoVjv0-24" value="" style="shape=trapezoid;perimeter=trapezoidPerimeter;whiteSpace=wrap;html=1;rounded=0;shadow=0;glass=0;comic=0;fillColor=#fff2cc;strokeColor=#d6b656;rotation=90;horizontal=0;" parent="1" vertex="1">
          <mxGeometry x="100" y="380.15999999999997" width="75" height="40" as="geometry" />
        </mxCell>
        <mxCell id="4Js2agZN6jOMp-eoVjv0-25" value="0" style="text;html=1;strokeColor=none;fillColor=none;align=center;verticalAlign=middle;whiteSpace=wrap;rounded=0;shadow=0;glass=0;comic=0;" parent="1" vertex="1">
          <mxGeometry x="110" y="410" width="40" height="20" as="geometry" />
        </mxCell>
        <mxCell id="4Js2agZN6jOMp-eoVjv0-26" value="1" style="text;html=1;strokeColor=none;fillColor=none;align=center;verticalAlign=middle;whiteSpace=wrap;rounded=0;shadow=0;glass=0;comic=0;" parent="1" vertex="1">
          <mxGeometry x="110" y="370" width="40" height="20" as="geometry" />
        </mxCell>
        <mxCell id="4Js2agZN6jOMp-eoVjv0-30" value="" style="endArrow=none;html=1;entryX=0.5;entryY=0;entryDx=0;entryDy=0;" parent="1" edge="1">
          <mxGeometry width="50" height="50" relative="1" as="geometry">
            <mxPoint x="440" y="280" as="sourcePoint" />
            <mxPoint x="400" y="279.5" as="targetPoint" />
          </mxGeometry>
        </mxCell>
        <mxCell id="4Js2agZN6jOMp-eoVjv0-31" value="" style="endArrow=none;html=1;" parent="1" edge="1">
          <mxGeometry width="50" height="50" relative="1" as="geometry">
            <mxPoint x="440" y="280" as="sourcePoint" />
            <mxPoint x="440" y="200" as="targetPoint" />
          </mxGeometry>
        </mxCell>
        <mxCell id="4Js2agZN6jOMp-eoVjv0-33" value="" style="endArrow=none;html=1;" parent="1" edge="1">
          <mxGeometry width="50" height="50" relative="1" as="geometry">
            <mxPoint x="80" y="200" as="sourcePoint" />
            <mxPoint x="440" y="200" as="targetPoint" />
          </mxGeometry>
        </mxCell>
        <mxCell id="4Js2agZN6jOMp-eoVjv0-34" value="" style="endArrow=none;html=1;" parent="1" edge="1">
          <mxGeometry width="50" height="50" relative="1" as="geometry">
            <mxPoint x="80" y="420" as="sourcePoint" />
            <mxPoint x="80" y="200" as="targetPoint" />
          </mxGeometry>
        </mxCell>
        <mxCell id="4Js2agZN6jOMp-eoVjv0-35" value="" style="endArrow=classic;html=1;" parent="1" edge="1">
          <mxGeometry width="50" height="50" relative="1" as="geometry">
            <mxPoint x="80" y="420" as="sourcePoint" />
            <mxPoint x="120" y="420" as="targetPoint" />
          </mxGeometry>
        </mxCell>
        <mxCell id="0FhCpNb5tNOCeEwcjjfK-1" value="" style="endArrow=classic;html=1;exitX=1;exitY=0.5;exitDx=0;exitDy=0;entryX=0;entryY=0.6;entryDx=0;entryDy=0;entryPerimeter=0;" edge="1" parent="1" source="4Js2agZN6jOMp-eoVjv0-6" target="4Js2agZN6jOMp-eoVjv0-10">
          <mxGeometry width="50" height="50" relative="1" as="geometry">
            <mxPoint x="390" y="440" as="sourcePoint" />
            <mxPoint x="530" y="540" as="targetPoint" />
          </mxGeometry>
        </mxCell>
        <mxCell id="0FhCpNb5tNOCeEwcjjfK-13" style="edgeStyle=orthogonalEdgeStyle;rounded=0;orthogonalLoop=1;jettySize=auto;html=1;exitX=1;exitY=0.5;exitDx=0;exitDy=0;entryX=0.5;entryY=1;entryDx=0;entryDy=0;" edge="1" parent="1" source="0FhCpNb5tNOCeEwcjjfK-9" target="4Js2agZN6jOMp-eoVjv0-22">
          <mxGeometry relative="1" as="geometry" />
        </mxCell>
        <mxCell id="0FhCpNb5tNOCeEwcjjfK-14" style="edgeStyle=orthogonalEdgeStyle;rounded=0;orthogonalLoop=1;jettySize=auto;html=1;exitX=1;exitY=0.5;exitDx=0;exitDy=0;" edge="1" parent="1" source="0FhCpNb5tNOCeEwcjjfK-9" target="4Js2agZN6jOMp-eoVjv0-17">
          <mxGeometry relative="1" as="geometry" />
        </mxCell>
        <mxCell id="0FhCpNb5tNOCeEwcjjfK-18" value="" style="group" vertex="1" connectable="0" parent="1">
          <mxGeometry x="360" y="440.48" width="150" height="160" as="geometry" />
        </mxCell>
        <mxCell id="4Js2agZN6jOMp-eoVjv0-6" value="&lt;font style=&quot;font-size: 12px&quot;&gt;Instruction&lt;br&gt;Memory&lt;/font&gt;" style="rounded=0;whiteSpace=wrap;html=1;shadow=0;glass=0;comic=0;fillColor=#dae8fc;strokeColor=#6c8ebf;" parent="0FhCpNb5tNOCeEwcjjfK-18" vertex="1">
          <mxGeometry width="150" height="160" as="geometry" />
        </mxCell>
        <mxCell id="0FhCpNb5tNOCeEwcjjfK-7" value="instr&lt;br&gt;-32-" style="rounded=0;whiteSpace=wrap;html=1;" vertex="1" parent="0FhCpNb5tNOCeEwcjjfK-18">
          <mxGeometry x="120" y="65.24" width="30" height="29.52" as="geometry" />
        </mxCell>
        <mxCell id="0FhCpNb5tNOCeEwcjjfK-8" value="pc_out&lt;br&gt;-32-" style="rounded=0;whiteSpace=wrap;html=1;" vertex="1" parent="0FhCpNb5tNOCeEwcjjfK-18">
          <mxGeometry y="64.76" width="40" height="30" as="geometry" />
        </mxCell>
        <mxCell id="0FhCpNb5tNOCeEwcjjfK-19" value="" style="group" vertex="1" connectable="0" parent="1">
          <mxGeometry x="200" y="360" width="110" height="80.01000000000005" as="geometry" />
        </mxCell>
        <mxCell id="4Js2agZN6jOMp-eoVjv0-1" value="&lt;font style=&quot;font-size: 12px&quot;&gt;PC&lt;/font&gt;" style="rounded=0;whiteSpace=wrap;html=1;fillColor=#f8cecc;strokeColor=#b85450;gradientColor=none;comic=0;shadow=0;glass=0;" parent="0FhCpNb5tNOCeEwcjjfK-19" vertex="1">
          <mxGeometry width="110" height="80" as="geometry" />
        </mxCell>
        <mxCell id="4Js2agZN6jOMp-eoVjv0-2" value="" style="triangle;whiteSpace=wrap;html=1;rounded=0;shadow=0;glass=0;comic=0;direction=west;rotation=90;" parent="0FhCpNb5tNOCeEwcjjfK-19" vertex="1">
          <mxGeometry x="45.31" y="60.160000000000025" width="19.38" height="20.32" as="geometry" />
        </mxCell>
        <mxCell id="0FhCpNb5tNOCeEwcjjfK-9" value="pc_out&lt;br&gt;-32-" style="rounded=0;whiteSpace=wrap;html=1;" vertex="1" parent="0FhCpNb5tNOCeEwcjjfK-19">
          <mxGeometry x="70" y="24.92" width="40" height="30.16" as="geometry" />
        </mxCell>
        <mxCell id="0FhCpNb5tNOCeEwcjjfK-11" value="pc_in&lt;br&gt;-32-" style="rounded=0;whiteSpace=wrap;html=1;" vertex="1" parent="0FhCpNb5tNOCeEwcjjfK-19">
          <mxGeometry y="24.92" width="40" height="30.16" as="geometry" />
        </mxCell>
        <mxCell id="0FhCpNb5tNOCeEwcjjfK-20" value="" style="group" vertex="1" connectable="0" parent="1">
          <mxGeometry x="570.31" y="160" width="60" height="600" as="geometry" />
        </mxCell>
        <mxCell id="4Js2agZN6jOMp-eoVjv0-10" value="&lt;p style=&quot;line-height: 190%&quot;&gt;&lt;br&gt;&lt;/p&gt;" style="rounded=0;whiteSpace=wrap;html=1;shadow=0;glass=0;comic=0;fillColor=#f8cecc;strokeColor=#b85450;" parent="0FhCpNb5tNOCeEwcjjfK-20" vertex="1">
          <mxGeometry width="60" height="600" as="geometry" />
        </mxCell>
        <mxCell id="4Js2agZN6jOMp-eoVjv0-16" value="IF_ID" style="text;html=1;strokeColor=none;fillColor=none;align=center;verticalAlign=middle;whiteSpace=wrap;rounded=0;shadow=0;glass=0;comic=0;" parent="0FhCpNb5tNOCeEwcjjfK-20" vertex="1">
          <mxGeometry x="10" y="290" width="40" height="20" as="geometry" />
        </mxCell>
        <mxCell id="4Js2agZN6jOMp-eoVjv0-17" value="pc_out" style="rounded=0;whiteSpace=wrap;html=1;shadow=0;glass=0;comic=0;fillColor=#d5e8d4;strokeColor=#82b366;" parent="0FhCpNb5tNOCeEwcjjfK-20" vertex="1">
          <mxGeometry y="220" width="60" height="40" as="geometry" />
        </mxCell>
        <mxCell id="4Js2agZN6jOMp-eoVjv0-21" value="" style="triangle;whiteSpace=wrap;html=1;rounded=0;shadow=0;glass=0;comic=0;direction=west;rotation=90;" parent="0FhCpNb5tNOCeEwcjjfK-20" vertex="1">
          <mxGeometry x="20.309999999999945" y="579.6800000000001" width="19.38" height="20.32" as="geometry" />
        </mxCell>
        <mxCell id="0FhCpNb5tNOCeEwcjjfK-2" value="instr" style="rounded=0;whiteSpace=wrap;html=1;shadow=0;glass=0;comic=0;fillColor=#d5e8d4;strokeColor=#82b366;" vertex="1" parent="0FhCpNb5tNOCeEwcjjfK-20">
          <mxGeometry y="340" width="60" height="40" as="geometry" />
        </mxCell>
        <mxCell id="0FhCpNb5tNOCeEwcjjfK-36" value="" style="group" vertex="1" connectable="0" parent="1">
          <mxGeometry x="1380" y="160" width="60" height="600" as="geometry" />
        </mxCell>
        <mxCell id="0FhCpNb5tNOCeEwcjjfK-37" value="" style="group" vertex="1" connectable="0" parent="0FhCpNb5tNOCeEwcjjfK-36">
          <mxGeometry width="60" height="600" as="geometry" />
        </mxCell>
        <mxCell id="0FhCpNb5tNOCeEwcjjfK-38" value="&lt;p style=&quot;line-height: 190%&quot;&gt;&lt;br&gt;&lt;/p&gt;" style="rounded=0;whiteSpace=wrap;html=1;shadow=0;glass=0;comic=0;fillColor=#f8cecc;strokeColor=#b85450;" vertex="1" parent="0FhCpNb5tNOCeEwcjjfK-37">
          <mxGeometry width="60" height="600" as="geometry" />
        </mxCell>
        <mxCell id="0FhCpNb5tNOCeEwcjjfK-39" value="EX_MEM" style="text;html=1;strokeColor=none;fillColor=none;align=center;verticalAlign=middle;whiteSpace=wrap;rounded=0;shadow=0;glass=0;comic=0;" vertex="1" parent="0FhCpNb5tNOCeEwcjjfK-37">
          <mxGeometry x="10" y="290" width="40" height="20" as="geometry" />
        </mxCell>
        <mxCell id="0FhCpNb5tNOCeEwcjjfK-40" value="pc_out" style="rounded=0;whiteSpace=wrap;html=1;shadow=0;glass=0;comic=0;fillColor=#d5e8d4;strokeColor=#82b366;" vertex="1" parent="0FhCpNb5tNOCeEwcjjfK-37">
          <mxGeometry y="220" width="60" height="40" as="geometry" />
        </mxCell>
        <mxCell id="0FhCpNb5tNOCeEwcjjfK-41" value="" style="triangle;whiteSpace=wrap;html=1;rounded=0;shadow=0;glass=0;comic=0;direction=west;rotation=90;" vertex="1" parent="0FhCpNb5tNOCeEwcjjfK-37">
          <mxGeometry x="20.309999999999945" y="579.6800000000001" width="19.38" height="20.32" as="geometry" />
        </mxCell>
        <mxCell id="0FhCpNb5tNOCeEwcjjfK-42" value="instr" style="rounded=0;whiteSpace=wrap;html=1;shadow=0;glass=0;comic=0;fillColor=#d5e8d4;strokeColor=#82b366;" vertex="1" parent="0FhCpNb5tNOCeEwcjjfK-37">
          <mxGeometry y="340" width="60" height="40" as="geometry" />
        </mxCell>
        <mxCell id="0FhCpNb5tNOCeEwcjjfK-43" value="" style="group" vertex="1" connectable="0" parent="1">
          <mxGeometry x="1730" y="160" width="60" height="600" as="geometry" />
        </mxCell>
        <mxCell id="0FhCpNb5tNOCeEwcjjfK-44" value="" style="group" vertex="1" connectable="0" parent="0FhCpNb5tNOCeEwcjjfK-43">
          <mxGeometry width="60" height="600" as="geometry" />
        </mxCell>
        <mxCell id="0FhCpNb5tNOCeEwcjjfK-45" value="&lt;p style=&quot;line-height: 190%&quot;&gt;&lt;br&gt;&lt;/p&gt;" style="rounded=0;whiteSpace=wrap;html=1;shadow=0;glass=0;comic=0;fillColor=#f8cecc;strokeColor=#b85450;" vertex="1" parent="0FhCpNb5tNOCeEwcjjfK-44">
          <mxGeometry width="60" height="600" as="geometry" />
        </mxCell>
        <mxCell id="0FhCpNb5tNOCeEwcjjfK-46" value="MEM_WB" style="text;html=1;strokeColor=none;fillColor=none;align=center;verticalAlign=middle;whiteSpace=wrap;rounded=0;shadow=0;glass=0;comic=0;" vertex="1" parent="0FhCpNb5tNOCeEwcjjfK-44">
          <mxGeometry x="10" y="290" width="40" height="20" as="geometry" />
        </mxCell>
        <mxCell id="0FhCpNb5tNOCeEwcjjfK-47" value="pc_out" style="rounded=0;whiteSpace=wrap;html=1;shadow=0;glass=0;comic=0;fillColor=#d5e8d4;strokeColor=#82b366;" vertex="1" parent="0FhCpNb5tNOCeEwcjjfK-44">
          <mxGeometry y="220" width="60" height="40" as="geometry" />
        </mxCell>
        <mxCell id="0FhCpNb5tNOCeEwcjjfK-48" value="" style="triangle;whiteSpace=wrap;html=1;rounded=0;shadow=0;glass=0;comic=0;direction=west;rotation=90;" vertex="1" parent="0FhCpNb5tNOCeEwcjjfK-44">
          <mxGeometry x="20.309999999999945" y="579.6800000000001" width="19.38" height="20.32" as="geometry" />
        </mxCell>
        <mxCell id="0FhCpNb5tNOCeEwcjjfK-49" value="instr" style="rounded=0;whiteSpace=wrap;html=1;shadow=0;glass=0;comic=0;fillColor=#d5e8d4;strokeColor=#82b366;" vertex="1" parent="0FhCpNb5tNOCeEwcjjfK-44">
          <mxGeometry y="340" width="60" height="40" as="geometry" />
        </mxCell>
        <mxCell id="0FhCpNb5tNOCeEwcjjfK-50" value="" style="group" vertex="1" connectable="0" parent="1">
          <mxGeometry x="740" y="360" width="190" height="230" as="geometry" />
        </mxCell>
        <mxCell id="0FhCpNb5tNOCeEwcjjfK-27" value="" style="group" vertex="1" connectable="0" parent="0FhCpNb5tNOCeEwcjjfK-50">
          <mxGeometry x="10" y="-10" width="190" height="230" as="geometry" />
        </mxCell>
        <mxCell id="0FhCpNb5tNOCeEwcjjfK-6" value="&lt;font style=&quot;font-size: 12px&quot;&gt;Registers&lt;/font&gt;" style="rounded=0;whiteSpace=wrap;html=1;shadow=0;glass=0;comic=0;fillColor=#dae8fc;strokeColor=#6c8ebf;" vertex="1" parent="0FhCpNb5tNOCeEwcjjfK-27">
          <mxGeometry width="190" height="230" as="geometry" />
        </mxCell>
        <mxCell id="0FhCpNb5tNOCeEwcjjfK-21" value="rr1_addr&lt;br&gt;-5-" style="rounded=0;whiteSpace=wrap;html=1;" vertex="1" parent="0FhCpNb5tNOCeEwcjjfK-27">
          <mxGeometry y="32.85714285714286" width="50" height="24.642857142857146" as="geometry" />
        </mxCell>
        <mxCell id="0FhCpNb5tNOCeEwcjjfK-22" value="rr2_addr&lt;br&gt;-5-" style="rounded=0;whiteSpace=wrap;html=1;" vertex="1" parent="0FhCpNb5tNOCeEwcjjfK-27">
          <mxGeometry y="80.00000000000003" width="50" height="24.642857142857146" as="geometry" />
        </mxCell>
        <mxCell id="0FhCpNb5tNOCeEwcjjfK-23" value="wr_addr&lt;br&gt;-5-" style="rounded=0;whiteSpace=wrap;html=1;" vertex="1" parent="0FhCpNb5tNOCeEwcjjfK-27">
          <mxGeometry y="130.00428571428574" width="50" height="24.642857142857146" as="geometry" />
        </mxCell>
        <mxCell id="0FhCpNb5tNOCeEwcjjfK-24" value="wd&lt;br&gt;-?-" style="rounded=0;whiteSpace=wrap;html=1;" vertex="1" parent="0FhCpNb5tNOCeEwcjjfK-27">
          <mxGeometry y="172.5" width="50" height="24.642857142857146" as="geometry" />
        </mxCell>
        <mxCell id="0FhCpNb5tNOCeEwcjjfK-25" value="rr1_data&lt;br&gt;-?-" style="rounded=0;whiteSpace=wrap;html=1;" vertex="1" parent="0FhCpNb5tNOCeEwcjjfK-27">
          <mxGeometry x="140" y="29.99999999999997" width="50" height="24.642857142857146" as="geometry" />
        </mxCell>
        <mxCell id="0FhCpNb5tNOCeEwcjjfK-26" value="rr2_data&lt;br&gt;-?-" style="rounded=0;whiteSpace=wrap;html=1;" vertex="1" parent="0FhCpNb5tNOCeEwcjjfK-27">
          <mxGeometry x="140" y="79.99857142857144" width="50" height="24.642857142857146" as="geometry" />
        </mxCell>
        <mxCell id="0FhCpNb5tNOCeEwcjjfK-51" style="edgeStyle=orthogonalEdgeStyle;rounded=0;orthogonalLoop=1;jettySize=auto;html=1;exitX=1;exitY=0.5;exitDx=0;exitDy=0;entryX=0;entryY=0.5;entryDx=0;entryDy=0;" edge="1" parent="1" source="0FhCpNb5tNOCeEwcjjfK-2" target="0FhCpNb5tNOCeEwcjjfK-21">
          <mxGeometry relative="1" as="geometry">
            <Array as="points">
              <mxPoint x="680" y="520" />
              <mxPoint x="680" y="395" />
            </Array>
          </mxGeometry>
        </mxCell>
        <mxCell id="0FhCpNb5tNOCeEwcjjfK-52" style="edgeStyle=orthogonalEdgeStyle;rounded=0;orthogonalLoop=1;jettySize=auto;html=1;exitX=1;exitY=0.5;exitDx=0;exitDy=0;entryX=0;entryY=0.5;entryDx=0;entryDy=0;" edge="1" parent="1" source="0FhCpNb5tNOCeEwcjjfK-2" target="0FhCpNb5tNOCeEwcjjfK-22">
          <mxGeometry relative="1" as="geometry">
            <Array as="points">
              <mxPoint x="680" y="520" />
              <mxPoint x="680" y="442" />
            </Array>
          </mxGeometry>
        </mxCell>
        <mxCell id="0FhCpNb5tNOCeEwcjjfK-56" style="edgeStyle=orthogonalEdgeStyle;rounded=0;orthogonalLoop=1;jettySize=auto;html=1;exitX=1;exitY=0.5;exitDx=0;exitDy=0;entryX=0;entryY=0.5;entryDx=0;entryDy=0;" edge="1" parent="1" source="4Js2agZN6jOMp-eoVjv0-17" target="0FhCpNb5tNOCeEwcjjfK-31">
          <mxGeometry relative="1" as="geometry">
            <Array as="points">
              <mxPoint x="660" y="400" />
              <mxPoint x="660" y="320" />
              <mxPoint x="1010" y="320" />
              <mxPoint x="1010" y="400" />
            </Array>
          </mxGeometry>
        </mxCell>
        <mxCell id="0FhCpNb5tNOCeEwcjjfK-57" value="Immediate&lt;br&gt;Selector" style="rounded=0;whiteSpace=wrap;html=1;fillColor=#dae8fc;strokeColor=#6c8ebf;" vertex="1" parent="1">
          <mxGeometry x="750" y="700" width="190" height="100" as="geometry" />
        </mxCell>
        <mxCell id="0FhCpNb5tNOCeEwcjjfK-58" value="instr[19:15]" style="text;html=1;strokeColor=none;fillColor=none;align=center;verticalAlign=middle;whiteSpace=wrap;rounded=0;" vertex="1" parent="1">
          <mxGeometry x="696" y="370" width="40" height="20" as="geometry" />
        </mxCell>
        <mxCell id="0FhCpNb5tNOCeEwcjjfK-59" value="instr[24:20]" style="text;html=1;strokeColor=none;fillColor=none;align=center;verticalAlign=middle;whiteSpace=wrap;rounded=0;" vertex="1" parent="1">
          <mxGeometry x="696" y="420.01" width="40" height="20" as="geometry" />
        </mxCell>
        <mxCell id="0FhCpNb5tNOCeEwcjjfK-60" style="edgeStyle=orthogonalEdgeStyle;rounded=0;orthogonalLoop=1;jettySize=auto;html=1;exitX=1;exitY=0.5;exitDx=0;exitDy=0;entryX=0;entryY=0.5;entryDx=0;entryDy=0;" edge="1" parent="1" source="0FhCpNb5tNOCeEwcjjfK-2" target="0FhCpNb5tNOCeEwcjjfK-23">
          <mxGeometry relative="1" as="geometry">
            <Array as="points">
              <mxPoint x="680" y="520" />
              <mxPoint x="680" y="492" />
            </Array>
          </mxGeometry>
        </mxCell>
        <mxCell id="0FhCpNb5tNOCeEwcjjfK-61" value="instr[11:7]" style="text;html=1;strokeColor=none;fillColor=none;align=center;verticalAlign=middle;whiteSpace=wrap;rounded=0;" vertex="1" parent="1">
          <mxGeometry x="696" y="470" width="40" height="20" as="geometry" />
        </mxCell>
        <mxCell id="0FhCpNb5tNOCeEwcjjfK-70" style="edgeStyle=orthogonalEdgeStyle;rounded=0;orthogonalLoop=1;jettySize=auto;html=1;exitX=1;exitY=0.5;exitDx=0;exitDy=0;entryX=0;entryY=0.5;entryDx=0;entryDy=0;" edge="1" parent="1" source="0FhCpNb5tNOCeEwcjjfK-25" target="0FhCpNb5tNOCeEwcjjfK-33">
          <mxGeometry relative="1" as="geometry">
            <Array as="points">
              <mxPoint x="1000" y="392" />
              <mxPoint x="1000" y="520" />
            </Array>
          </mxGeometry>
        </mxCell>
        <mxCell id="0FhCpNb5tNOCeEwcjjfK-71" style="edgeStyle=orthogonalEdgeStyle;rounded=0;orthogonalLoop=1;jettySize=auto;html=1;exitX=1;exitY=0.5;exitDx=0;exitDy=0;entryX=0;entryY=0.5;entryDx=0;entryDy=0;" edge="1" parent="1" source="0FhCpNb5tNOCeEwcjjfK-26" target="0FhCpNb5tNOCeEwcjjfK-69">
          <mxGeometry relative="1" as="geometry">
            <Array as="points">
              <mxPoint x="990" y="442" />
              <mxPoint x="990" y="560" />
            </Array>
          </mxGeometry>
        </mxCell>
        <mxCell id="0FhCpNb5tNOCeEwcjjfK-93" style="edgeStyle=orthogonalEdgeStyle;rounded=0;orthogonalLoop=1;jettySize=auto;html=1;exitX=1;exitY=0.5;exitDx=0;exitDy=0;entryX=0;entryY=0.5;entryDx=0;entryDy=0;" edge="1" parent="1" source="0FhCpNb5tNOCeEwcjjfK-2" target="0FhCpNb5tNOCeEwcjjfK-82">
          <mxGeometry relative="1" as="geometry">
            <Array as="points">
              <mxPoint x="680" y="520" />
              <mxPoint x="680" y="600" />
            </Array>
          </mxGeometry>
        </mxCell>
        <mxCell id="0FhCpNb5tNOCeEwcjjfK-94" style="edgeStyle=orthogonalEdgeStyle;rounded=0;orthogonalLoop=1;jettySize=auto;html=1;exitX=1;exitY=0.5;exitDx=0;exitDy=0;entryX=0;entryY=0.5;entryDx=0;entryDy=0;" edge="1" parent="1" source="0FhCpNb5tNOCeEwcjjfK-2" target="0FhCpNb5tNOCeEwcjjfK-92">
          <mxGeometry relative="1" as="geometry">
            <Array as="points">
              <mxPoint x="680" y="520" />
              <mxPoint x="680" y="640" />
            </Array>
          </mxGeometry>
        </mxCell>
        <mxCell id="0FhCpNb5tNOCeEwcjjfK-95" value="instr[19:15]" style="text;html=1;strokeColor=none;fillColor=none;align=center;verticalAlign=middle;whiteSpace=wrap;rounded=0;" vertex="1" parent="1">
          <mxGeometry x="696" y="580.48" width="40" height="20" as="geometry" />
        </mxCell>
        <mxCell id="0FhCpNb5tNOCeEwcjjfK-98" value="instr[24:20]" style="text;html=1;strokeColor=none;fillColor=none;align=center;verticalAlign=middle;whiteSpace=wrap;rounded=0;" vertex="1" parent="1">
          <mxGeometry x="696" y="620" width="40" height="20" as="geometry" />
        </mxCell>
        <mxCell id="0FhCpNb5tNOCeEwcjjfK-28" value="" style="group" vertex="1" connectable="0" parent="1">
          <mxGeometry x="1040" y="160" width="60" height="720" as="geometry" />
        </mxCell>
        <mxCell id="0FhCpNb5tNOCeEwcjjfK-29" value="&lt;p style=&quot;line-height: 190%&quot;&gt;&lt;br&gt;&lt;/p&gt;" style="rounded=0;whiteSpace=wrap;html=1;shadow=0;glass=0;comic=0;fillColor=#f8cecc;strokeColor=#b85450;" vertex="1" parent="0FhCpNb5tNOCeEwcjjfK-28">
          <mxGeometry width="60" height="720" as="geometry" />
        </mxCell>
        <mxCell id="0FhCpNb5tNOCeEwcjjfK-30" value="ID_EX" style="text;html=1;strokeColor=none;fillColor=none;align=center;verticalAlign=middle;whiteSpace=wrap;rounded=0;shadow=0;glass=0;comic=0;" vertex="1" parent="0FhCpNb5tNOCeEwcjjfK-28">
          <mxGeometry x="10" y="290" width="40" height="20" as="geometry" />
        </mxCell>
        <mxCell id="0FhCpNb5tNOCeEwcjjfK-31" value="pc_out" style="rounded=0;whiteSpace=wrap;html=1;shadow=0;glass=0;comic=0;fillColor=#d5e8d4;strokeColor=#82b366;" vertex="1" parent="0FhCpNb5tNOCeEwcjjfK-28">
          <mxGeometry y="220" width="60" height="40" as="geometry" />
        </mxCell>
        <mxCell id="0FhCpNb5tNOCeEwcjjfK-32" value="" style="triangle;whiteSpace=wrap;html=1;rounded=0;shadow=0;glass=0;comic=0;direction=west;rotation=90;" vertex="1" parent="0FhCpNb5tNOCeEwcjjfK-28">
          <mxGeometry x="20.309999999999945" y="699.6800000000001" width="19.38" height="20.32" as="geometry" />
        </mxCell>
        <mxCell id="0FhCpNb5tNOCeEwcjjfK-33" value="rr1_data" style="rounded=0;whiteSpace=wrap;html=1;shadow=0;glass=0;comic=0;fillColor=#d5e8d4;strokeColor=#82b366;" vertex="1" parent="0FhCpNb5tNOCeEwcjjfK-28">
          <mxGeometry y="340" width="60" height="40" as="geometry" />
        </mxCell>
        <mxCell id="0FhCpNb5tNOCeEwcjjfK-69" value="rr2_data" style="rounded=0;whiteSpace=wrap;html=1;shadow=0;glass=0;comic=0;fillColor=#d5e8d4;strokeColor=#82b366;" vertex="1" parent="0FhCpNb5tNOCeEwcjjfK-28">
          <mxGeometry y="380" width="60" height="40" as="geometry" />
        </mxCell>
        <mxCell id="0FhCpNb5tNOCeEwcjjfK-82" value="rr1_addr" style="rounded=0;whiteSpace=wrap;html=1;shadow=0;glass=0;comic=0;fillColor=#d5e8d4;strokeColor=#82b366;" vertex="1" parent="0FhCpNb5tNOCeEwcjjfK-28">
          <mxGeometry y="420" width="60" height="40" as="geometry" />
        </mxCell>
        <mxCell id="0FhCpNb5tNOCeEwcjjfK-92" value="rr2_addr" style="rounded=0;whiteSpace=wrap;html=1;shadow=0;glass=0;comic=0;fillColor=#d5e8d4;strokeColor=#82b366;" vertex="1" parent="0FhCpNb5tNOCeEwcjjfK-28">
          <mxGeometry y="460" width="60" height="40" as="geometry" />
        </mxCell>
      </root>
    </mxGraphModel>
  </diagram>
</mxfile>
